<?xml version="1.0" encoding="UTF-8" standalone="no"?>
<!-- Created with Inkscape (http://www.inkscape.org/) -->

<svg
   width="210mm"
   height="297mm"
   viewBox="0 0 210 297"
   version="1.1"
   id="svg1"
   inkscape:version="1.3.1 (9b9bdc1480, 2023-11-25, custom)"
   sodipodi:docname="ativega-kn.svg"
   xmlns:inkscape="http://www.inkscape.org/namespaces/inkscape"
   xmlns:sodipodi="http://sodipodi.sourceforge.net/DTD/sodipodi-0.dtd"
   xmlns="http://www.w3.org/2000/svg"
   xmlns:svg="http://www.w3.org/2000/svg">
  <sodipodi:namedview
     id="namedview1"
     pagecolor="#ffffff"
     bordercolor="#000000"
     borderopacity="0.25"
     inkscape:showpageshadow="2"
     inkscape:pageopacity="0.0"
     inkscape:pagecheckerboard="0"
     inkscape:deskcolor="#d1d1d1"
     inkscape:document-units="mm"
     inkscape:zoom="17.123112"
     inkscape:cx="18.308588"
     inkscape:cy="28.645494"
     inkscape:window-width="1646"
     inkscape:window-height="894"
     inkscape:window-x="66"
     inkscape:window-y="32"
     inkscape:window-maximized="1"
     inkscape:current-layer="layer1" />
  <defs
     id="defs1" />
  <g
     inkscape:label="Layer 1"
     inkscape:groupmode="layer"
     id="layer1">
    <path
       d="m 4.1439201,3.6596066 q 0,0.5207 -0.2794,0.7747 -0.276225,0.254 -0.86995,0.254 -0.574675,0 -0.85725,-0.254 -0.282575,-0.257175 -0.282575,-0.7493 0,-0.2413 0.08255,-0.422275 0.08255,-0.180975 0.225425,-0.282575 0.14605,-0.1016 0.3302,-0.1016 0.19685,0 0.28575,0.13335 0.0889,0.130175 0.0889,0.31115 0,0.193675 -0.0889,0.3175 -0.0889,0.12065 -0.2667,0.12065 -0.174625,0 -0.269875,-0.111125 -0.092075,-0.1143 -0.092075,-0.3048 0,-0.0762 0.01905,-0.13335 -0.08255,0.0889 -0.127,0.206375 -0.041275,0.1143 -0.041275,0.27305 0,0.1905 0.092075,0.346075 0.092075,0.155575 0.307975,0.24765 0.219075,0.092075 0.593725,0.092075 0.295275,0 0.48895,-0.05715 0.193675,-0.05715 0.307975,-0.155575 0.1143,-0.1016 0.161925,-0.2286 0.047625,-0.130175 0.047625,-0.276225 0,-0.244475 -0.0889,-0.396875 -0.0889,-0.1524 -0.24765,-0.1524 -0.0889,0 -0.14605,0.0508 -0.05715,0.0508 -0.05715,0.142875 0,0.13335 0.10795,0.206375 0.111125,0.06985 0.2667,0.06985 v 0.23495 h -0.90805 l 0.015875,-0.24765 h 0.295275 q 0.0635,0 0.123825,0 0.0635,0 0.12065,0.00635 -0.10795,-0.060325 -0.17145,-0.149225 -0.0635,-0.0889 -0.0635,-0.206375 0,-0.149225 0.1016,-0.244475 0.104775,-0.09525 0.263525,-0.09525 0.168275,0 0.28575,0.10795 0.12065,0.104775 0.180975,0.282575 0.0635,0.174625 0.0635,0.390525 z m -1.8669,-0.33655 q 0,0.0889 0.05715,0.14605 0.060325,0.053975 0.168275,0.053975 0.12065,0 0.17145,-0.05715 0.053975,-0.060325 0.053975,-0.14605 0,-0.079375 -0.053975,-0.1397 -0.0508,-0.060325 -0.1651,-0.060325 -0.1143,0 -0.174625,0.05715 -0.05715,0.05715 -0.05715,0.14605 z m 3.0067203,1.36525 q -0.225425,0 -0.384175,-0.0635 -0.15875,-0.066675 -0.257175,-0.174625 -0.098425,-0.111125 -0.142875,-0.2413 -0.04445,-0.13335 -0.04445,-0.263525 0,-0.034925 0,-0.066675 0.00318,-0.03175 0.00953,-0.073025 h 0.123825 q 0.00318,0.1524 0.053975,0.28575 0.053975,0.130175 0.19685,0.212725 0.142875,0.08255 0.41275,0.08255 0.6223,0 0.6223,-0.4445 0,-0.0635 -0.0127,-0.130175 -0.0127,-0.06985 -0.053975,-0.127 -0.066675,0.15875 -0.1905,0.26035 -0.123825,0.098425 -0.3175,0.098425 -0.1905,0 -0.29845,-0.0889 -0.104775,-0.092075 -0.104775,-0.2413 0,-0.149225 0.117475,-0.238125 0.117475,-0.0889 0.320675,-0.0889 0.1016,0 0.1905,0.01905 0.0889,0.015875 0.193675,0.0635 0.01905,-0.06985 0.028575,-0.142875 0.00953,-0.0762 0.00953,-0.14605 0,-0.168275 -0.0635,-0.29845 -0.060325,-0.13335 -0.161925,-0.2032 0.015875,0.028575 0.022225,0.073025 0.00953,0.04445 0.00953,0.085725 0,0.1651 -0.079375,0.26035 -0.079375,0.092075 -0.24765,0.092075 -0.155575,0 -0.254,-0.1016 -0.09525,-0.104775 -0.09525,-0.269875 0,-0.1016 0.047625,-0.1905 0.0508,-0.0889 0.14605,-0.142875 0.09525,-0.05715 0.2286,-0.05715 0.200025,0 0.327025,0.104775 0.130175,0.1016 0.193675,0.27305 0.0635,0.17145 0.0635,0.37465 0,0.09525 -0.00953,0.187325 -0.00953,0.092075 -0.03175,0.1778 0.123825,0.092075 0.17145,0.2159 0.0508,0.123825 0.0508,0.23495 0,0.193675 -0.0889,0.352425 -0.0889,0.155575 -0.263525,0.24765 -0.174625,0.092075 -0.43815,0.092075 z m -0.053975,-1.717675 q 0.098425,0 0.149225,-0.04445 0.053975,-0.04445 0.053975,-0.117475 0,-0.066675 -0.0508,-0.1143 -0.0508,-0.0508 -0.155575,-0.0508 -0.111125,0 -0.155575,0.053975 -0.04445,0.0508 -0.04445,0.104775 0,0.073025 0.04445,0.12065 0.047625,0.047625 0.15875,0.047625 z m -0.1397,0.708025 q 0,0.08255 0.05715,0.12065 0.060325,0.034925 0.17145,0.034925 0.130175,0 0.2159,-0.066675 0.085725,-0.06985 0.136525,-0.1778 l -0.00635,-0.00317 q -0.060325,-0.03175 -0.136525,-0.0508 -0.0762,-0.01905 -0.17145,-0.01905 -0.14605,0 -0.206375,0.0508 -0.060325,0.047625 -0.060325,0.111125 z m 1.8224468,1.006475 q -0.1651,0 -0.2794,-0.079375 -0.111125,-0.079375 -0.168275,-0.20955 -0.053975,-0.130175 -0.053975,-0.2794 0,-0.2032 0.10795,-0.339725 0.111125,-0.1397 0.301625,-0.1397 0.149225,0 0.2286,0.08255 0.08255,0.079375 0.08255,0.2032 0,0.12065 -0.0762,0.1905 -0.0762,0.06985 -0.212725,0.0889 l -0.01905,-0.117475 q 0.1143,-0.0254 0.1143,-0.130175 0,-0.05715 -0.0381,-0.092075 -0.0381,-0.0381 -0.117475,-0.0381 -0.104775,0 -0.168275,0.06985 -0.060325,0.066675 -0.060325,0.1778 0,0.155575 0.1016,0.23495 0.1016,0.0762 0.2921,0.0762 0.339725,0 0.441325,-0.3683 h 0.10795 q 0.0508,0.1651 0.13335,0.2667 0.085725,0.1016 0.263525,0.1016 0.187325,0 0.26035,-0.12065 0.0762,-0.12065 0.0762,-0.295275 0,-0.2159 -0.1016,-0.390525 -0.098425,-0.1778 -0.2794,-0.282575 -0.1778,-0.104775 -0.4191,-0.104775 h -1.0033 l 0.01905,-0.276225 h 1.33985 q 0.193675,0 0.288925,-0.022225 0.09525,-0.022225 0.14605,-0.06985 0.08255,-0.079375 0.08255,-0.2286 0,-0.127 -0.08255,-0.22225 -0.08255,-0.09525 -0.244475,-0.09525 -0.117475,0 -0.180975,0.05715 -0.060325,0.05715 -0.060325,0.14605 0,0.073025 0.03175,0.1143 v -0.00635 q 0,-0.053975 0.034925,-0.092075 0.0381,-0.0381 0.098425,-0.0381 0.066675,0 0.098425,0.041275 0.034925,0.041275 0.034925,0.09525 0,0.066675 -0.04445,0.10795 -0.04445,0.0381 -0.127,0.0381 -0.10795,0 -0.1905,-0.073025 -0.079375,-0.073025 -0.079375,-0.212725 0,-0.08255 0.0381,-0.161925 0.041275,-0.08255 0.127,-0.136525 0.0889,-0.053975 0.225425,-0.053975 0.149225,0 0.250825,0.079375 0.104775,0.0762 0.15875,0.200025 0.05715,0.12065 0.05715,0.257175 0,0.244475 -0.127,0.384175 -0.127,0.136525 -0.41275,0.161925 0.1905,0.085725 0.31115,0.225425 0.12065,0.1397 0.174625,0.3048 0.05715,0.161925 0.05715,0.314325 0,0.10795 -0.0254,0.225425 -0.0254,0.1143 -0.0889,0.212725 -0.060325,0.098425 -0.1651,0.15875 -0.1016,0.060325 -0.254,0.060325 -0.19685,0 -0.314325,-0.1143 -0.1143,-0.1143 -0.17145,-0.314325 -0.0635,0.193675 -0.18415,0.31115 -0.12065,0.117475 -0.33655,0.117475 z m 2.5780982,0 q -0.127,0 -0.26035,-0.0635 -0.13335,-0.066675 -0.24765,-0.1905 -0.1143,-0.127 -0.18415,-0.3048 -0.06985,-0.1778 -0.06985,-0.40005 0,-0.254 0.079375,-0.4445 0.08255,-0.1905 0.22225,-0.295275 0.142875,-0.10795 0.3175,-0.10795 0.2032,0 0.2921,0.130175 0.092075,0.130175 0.092075,0.3175 0,0.1905 -0.092075,0.31115 -0.0889,0.12065 -0.269875,0.12065 -0.17145,0 -0.27305,-0.117475 -0.098425,-0.117475 -0.098425,-0.295275 0,-0.041275 0.00635,-0.08255 -0.130175,0.168275 -0.130175,0.42545 0,0.2921 0.19685,0.51435 0.200025,0.219075 0.5842,0.28575 0,0.0889 -0.041275,0.142875 -0.0381,0.053975 -0.123825,0.053975 z m -0.123825,-1.165225 q 0.1016,0 0.161925,-0.053975 0.0635,-0.05715 0.0635,-0.14605 0,-0.092075 -0.0635,-0.14605 -0.060325,-0.053975 -0.161925,-0.053975 -0.098425,0 -0.161925,0.053975 -0.0635,0.053975 -0.0635,0.14605 0,0.0889 0.060325,0.14605 0.0635,0.053975 0.1651,0.053975 z m 0.7143686,1.1303 v -0.36195 q 0,-0.225425 0.04763,-0.42545 0.0508,-0.2032 0.1524,-0.3683 0.06033,-0.092075 0.13335,-0.168275 0.07302,-0.079375 0.168275,-0.136525 h -0.50165 l 0.01905,-0.276225 h 0.981075 q 0.15875,0 0.23495,-0.015875 0.0762,-0.01905 0.12065,-0.05715 0.07303,-0.0635 0.07303,-0.18415 0,-0.18415 -0.174625,-0.3683 l 0.1143,-0.085725 q 0.10795,0.1143 0.1651,0.24765 0.06032,0.13335 0.06032,0.2794 0,0.085725 -0.02222,0.17145 -0.02223,0.08255 -0.09208,0.1524 -0.05397,0.053975 -0.1397,0.092075 -0.08255,0.034925 -0.250825,0.041275 0.08573,0.047625 0.155575,0.117475 0.06985,0.066675 0.127,0.149225 0.12065,0.168275 0.17145,0.384175 0.0508,0.2159 0.0508,0.441325 v 0.371475 h -0.301625 v -0.3302 q 0,-0.26035 -0.01587,-0.42545 -0.01588,-0.168275 -0.0508,-0.28575 -0.05397,-0.1905 -0.1651,-0.3048 -0.111125,-0.1143 -0.26035,-0.1143 -0.17145,0 -0.282575,0.130175 -0.10795,0.127 -0.15875,0.320675 -0.02858,0.111125 -0.04445,0.269875 -0.01587,0.15875 -0.01587,0.38735 v 0.352425 z"
       id="text1"
       style="stroke-width:0.264583"
       aria-label="ಅತಿವೇಗ " />
  </g>
</svg>
